 <svg  version="1.0" xmlns="http://www.w3.org/2000/svg"  width="300.000000pt" height="238.000000pt" viewBox="0 0 300.000000 238.000000"  preserveAspectRatio="xMidYMid meet">  <g transform="translate(0.000000,238.000000) scale(0.100000,-0.100000)" fill="#0e7c43" stroke="none"> <path d="M1437 1983 c-4 -3 -7 -15 -7 -25 0 -22 -25 -24 -34 -3 -6 17 -56 21 -56 5 0 -6 12 -21 26 -33 14 -12 29 -38 33 -57 6 -29 11 -35 31 -35 22 0 25 4 22 31 -1 17 6 52 17 77 l20 47 -23 0 c-12 0 -26 -3 -29 -7z"/> <path d="M1585 1978 c-5 -18 -25 -117 -25 -128 0 -6 11 -10 25 -10 18 0 25 5 25 19 0 11 3 28 7 38 5 14 10 7 18 -27 9 -38 15 -46 37 -48 24 -3 27 1 41 65 16 69 11 91 -17 80 -10 -4 -16 -18 -16 -37 0 -40 -17 -30 -26 14 -4 23 -13 36 -27 40 -32 8 -37 7 -42 -6z"/> <path d="M1812 1902 c-9 -10 -26 -34 -37 -54 -19 -37 -19 -38 1 -65 29 -39 85 -44 117 -9 12 13 29 36 37 51 12 22 12 28 0 35 -20 12 -37 2 -59 -36 -20 -34 -44 -44 -56 -23 -4 5 5 28 19 49 14 22 26 44 26 49 0 18 -31 20 -48 3z"/> <path d="M1186 1902 c-3 -4 0 -41 6 -80 10 -65 14 -73 32 -70 12 2 22 12 25 23 5 27 21 36 51 30 53 -11 52 10 -4 58 -51 44 -97 60 -110 39z"/> <path d="M1025 1776 c-21 -15 -23 -8 32 -85 l18 -24 -30 8 c-50 14 -99 12 -102 -5 -3 -18 101 -93 124 -88 27 5 25 24 -3 37 -35 16 -23 26 15 13 40 -14 57 9 34 45 -16 24 -6 32 15 11 8 -8 15 -8 27 2 13 11 8 18 -42 56 -32 24 -61 44 -64 44 -3 0 -14 -6 -24 -14z"/> <path d="M1975 1750 c-11 -12 -32 -29 -47 -38 -16 -9 -28 -23 -28 -32 1 -21 46 -70 64 -70 23 0 29 20 12 39 -23 25 -20 33 25 64 22 15 39 33 36 40 -6 21 -42 19 -62 -3z"/> <path d="M1348 1582 c-81 -48 -148 -90 -148 -95 0 -4 11 -24 23 -45 13 -20 48 -83 77 -139 l53 -103 51 37 c28 21 63 46 79 57 l27 20 0 178 c0 98 -3 178 -7 177 -5 -1 -74 -40 -155 -87z m122 -122 c0 -63 -4 -120 -8 -127 -12 -20 -84 -73 -98 -73 -8 0 -22 17 -33 38 -10 20 -35 68 -56 106 -30 57 -34 71 -23 82 7 7 56 35 108 63 67 36 97 46 102 38 4 -7 8 -64 8 -127z"/> <path d="M1685 1624 c22 -13 73 -43 112 -67 l73 -42 -1 -155 c0 -85 -4 -177 -7 -204 l-7 -48 -170 -98 c-93 -54 -172 -97 -175 -95 -217 124 -326 188 -331 193 -4 4 -9 96 -12 205 l-5 198 38 27 c21 15 46 32 56 39 18 12 18 12 -1 5 -11 -4 -39 -17 -62 -30 l-43 -22 0 -178 c0 -97 -3 -193 -6 -213 l-6 -36 184 -106 c102 -59 189 -107 193 -107 5 0 91 48 192 106 l183 106 0 101 c0 56 -3 153 -7 215 l-6 112 -51 29 c-114 64 -165 91 -173 91 -4 0 10 -12 32 -26z"/> <path d="M2123 1513 c-30 -6 -38 -33 -15 -55 23 -23 68 -16 75 12 4 16 -21 53 -34 49 -2 -1 -14 -4 -26 -6z"/> <path d="M1750 1472 c0 -52 30 -71 63 -39 l24 22 -43 27 -44 27 0 -37z"/> <path d="M866 1451 c-21 -23 -12 -49 20 -57 44 -11 70 29 38 60 -20 21 -37 20 -58 -3z"/> <path d="M1818 1408 c-4 -10 -14 -18 -23 -18 -18 0 -18 4 -19 -157 -1 -79 3 -132 8 -130 27 9 48 58 51 113 3 84 -8 213 -17 192z"/> <path d="M1201 1268 l-1 -136 32 -20 c30 -19 34 -19 62 -5 17 9 32 17 34 18 3 2 -56 117 -65 125 -3 3 -2 -23 2 -56 7 -68 -4 -88 -29 -52 -12 17 -16 49 -17 123 0 55 -4 109 -9 120 -5 13 -9 -31 -9 -117z"/> <path d="M1554 1328 c-4 -7 -3 -8 4 -4 8 5 12 -3 12 -26 0 -23 7 -37 21 -46 18 -12 24 -11 41 8 19 21 19 22 2 36 -40 31 -73 44 -80 32z"/> <path d="M1660 1283 c0 -32 5 -42 24 -51 19 -9 25 -8 30 4 3 8 12 14 21 14 22 0 19 13 -7 29 -13 8 -33 21 -45 29 -23 14 -23 13 -23 -25z"/> <path d="M2042 1281 c-5 -3 -12 -21 -15 -39 -16 -79 64 -131 126 -82 23 19 47 83 35 95 -9 9 -137 32 -146 26z m96 -56 c8 -8 -7 -35 -23 -41 -20 -8 -45 13 -45 38 0 18 5 20 32 14 17 -3 34 -8 36 -11z"/> <path d="M1510 1125 c0 -80 -4 -145 -9 -145 -17 0 -31 28 -37 74 -9 63 -24 58 -24 -8 0 -52 2 -55 37 -76 l37 -22 28 31 c27 30 28 35 28 148 0 91 -3 114 -12 105 -19 -19 -28 -14 -28 13 0 14 -4 25 -10 25 -6 0 -10 -55 -10 -145z"/> <path d="M925 1220 c-40 -11 -61 -22 -63 -34 -3 -15 2 -17 35 -14 35 3 38 1 41 -24 3 -21 -1 -27 -20 -30 -30 -4 -38 -38 -8 -38 11 0 48 8 81 18 42 12 59 21 56 32 -2 10 -13 14 -34 13 -24 -2 -32 2 -36 19 -8 27 -1 38 24 38 12 0 19 7 19 20 0 24 -13 24 -95 0z"/> <path d="M1714 1216 c-17 -16 -22 -36 -26 -94 -4 -80 3 -86 40 -32 16 25 22 47 22 91 0 33 -3 59 -7 58 -5 -1 -18 -11 -29 -23z"/> <path d="M1623 1219 c-22 -8 -23 -14 -23 -116 l0 -108 27 28 c25 24 28 36 32 108 2 44 -1 84 -5 89 -5 4 -19 4 -31 -1z"/> <path d="M1407 1131 c-16 -10 -37 -16 -48 -14 -20 6 -26 -11 -8 -23 15 -9 89 26 89 43 0 16 1 17 -33 -6z"/> <path d="M1958 1057 c-14 -23 -24 -45 -22 -49 11 -17 45 -7 56 17 6 14 15 25 20 25 12 0 10 -24 -4 -38 -10 -10 -10 -15 2 -22 11 -7 20 -3 32 13 9 12 20 18 24 14 4 -4 -2 -20 -14 -36 -11 -16 -18 -31 -15 -35 16 -16 40 -1 65 38 l26 44 -60 36 c-34 20 -66 36 -72 36 -6 -1 -23 -20 -38 -43z"/> <path d="M1047 1000 c-21 -18 -38 -26 -42 -20 -8 13 -55 13 -55 -1 0 -16 62 -89 76 -89 19 0 27 19 15 34 -8 9 1 20 35 45 25 17 44 37 41 44 -7 23 -35 18 -70 -13z"/> <path d="M1132 889 c-53 -57 -56 -68 -26 -79 17 -7 28 1 62 45 46 59 50 70 26 79 -10 4 -31 -11 -62 -45z"/> <path d="M1832 917 c-8 -9 -4 -32 12 -82 23 -72 31 -81 56 -65 13 8 13 15 -1 55 -18 50 -14 55 25 24 25 -20 76 -21 76 -1 0 10 -126 82 -143 82 -8 0 -19 -6 -25 -13z"/> <path d="M1288 847 c-31 -26 -89 -107 -83 -117 12 -20 44 -9 65 23 l22 32 -6 -41 c-5 -38 -4 -42 19 -46 19 -4 29 2 45 26 l21 31 -3 -40 c-3 -34 0 -40 18 -43 20 -3 22 3 27 70 3 49 1 75 -7 80 -21 14 -25 12 -62 -37 -14 -19 -15 -18 -9 17 5 30 2 39 -13 47 -14 7 -23 7 -34 -2z"/> <path d="M1616 727 c-22 -16 -12 -45 20 -58 18 -6 29 -4 43 7 23 20 16 50 -12 58 -30 8 -31 8 -51 -7z"/> </g> </svg> 